<?xml version="1.0" encoding="UTF-8"?>
<svg width="307px" height="294px" viewBox="0 0 307 294" version="1.1" xmlns="http://www.w3.org/2000/svg" xmlns:xlink="http://www.w3.org/1999/xlink">
    <!-- Generator: Sketch 58 (84663) - https://sketch.com -->
    <title>noun-australia-map-940443</title>
    <desc>Created with Sketch.</desc>
    <g id="Desktop" stroke="none" stroke-width="1" fill="none" fill-rule="evenodd">
        <g id="Splash" transform="translate(-531.000000, -107.000000)">
            <g id="noun-australia-map-940443" transform="translate(530.500000, 106.000000)">
                <path d="M13.967161,114.352119 C14.4201799,113.119083 15.9659771,112.209067 16.6748997,110.979504 C17.4495274,109.638794 18.59072,108.829505 19.5140485,107.606889 C20.1607243,106.752447 19.7388288,107.044208 20.6033687,106.519733 C20.8627306,106.363433 21.2638771,106.530153 21.5474462,106.356486 C21.7791428,106.214079 22.06617,105.498571 22.2702014,105.262383 C22.9480007,104.470461 23.6811304,102.580963 24.4834234,102.171109 C24.649415,102.831044 24.7497017,103.463192 24.8154067,104.143967 C25.7421934,104.439201 26.8073064,103.682013 27.7513839,103.699379 C28.3773107,103.709799 28.6505053,104.005033 29.4285912,103.820946 C30.140972,103.650753 30.9640139,103.233952 31.5830244,102.893564 L31.7282671,102.893564 C32.7103843,102.928297 33.4365978,101.684841 34.2043091,101.160366 C35.200259,100.483065 36.2377068,100.288558 37.3650667,100.024584 C39.7754038,99.4619021 40.0347657,97.0722428 42.1304102,96.2525341 C43.9079041,95.5543924 45.9447599,96.3879945 47.8951618,95.6099659 C49.897436,94.8110972 51.8167144,93.3592403 53.8189886,92.7409854 L53.9642313,92.7409854 C56.1048319,93.1508397 58.8575267,89.7052845 59.8880582,88.0658671 C60.6073553,86.9231376 60.7595143,86.0964822 60.8943825,84.7870322 C61.0465415,83.3212819 61.0672905,83.1615082 62.4782195,82.5918801 C61.8522927,80.6086018 63.3635083,80.296001 64.6499435,79.2539984 C65.1029624,78.8892975 66.614178,77.6527878 66.396314,76.9303326 C66.1922826,76.2460843 64.9819268,76.416278 64.6430272,75.6313027 C64.4320795,75.1415615 64.4632029,73.8529516 64.356,73.3111103 C64.1969247,72.505295 63.944479,71.8731467 64.0655146,71.0082846 C64.1934665,70.098269 66.30986,66.7187072 66.9599939,68.3754913 L66.6695085,68.0837306 C66.5208077,66.1768659 67.4510525,66.0483522 68.2533455,65.3293704 C69.0314313,64.6312287 69.5639879,62.3179829 70.8435068,62.2971428 C71.0129566,63.1203249 70.5945193,63.6725863 70.7985507,64.3846214 C70.9472516,64.9021493 71.7357119,66.096979 72.0469462,66.6388203 C72.7835342,67.9170102 73.388712,70.5949569 74.7650594,71.3764588 C75.7644675,70.0426955 75.0520867,68.4484315 75.4705239,67.0868815 C76.0411202,67.2536019 76.514888,67.7919699 77.1546475,67.9309036 C77.6664551,67.1771883 75.8025072,64.8048958 75.1834967,64.3325213 C74.82039,64.0546539 73.257302,63.9608737 73.6688229,63.019598 C73.9074359,62.4742833 75.1834967,62.8216175 75.5881013,62.4708099 C74.8618879,61.9185486 73.7933167,60.0498906 75.6192248,60.2443977 C76.6947123,60.359018 76.4941391,61.9914888 77.5108379,62.4256565 C77.7252438,61.8282417 77.3310136,61.3315538 77.3379299,60.7028789 C77.8186141,60.8209725 78.2820074,61.1370466 78.7419426,61.4114406 C78.8007313,61.4461741 80.2877398,62.2589361 80.2393256,62.2624094 C81.7297922,62.0574823 80.6404721,59.0009413 82.0963571,59.5184693 C82.3660936,58.6640271 83.9118908,57.2469036 83.4312066,56.5209751 C82.8364032,56.9829296 82.4490894,57.8651585 81.7401667,57.9137853 C81.4600558,57.1461767 81.138447,57.017663 80.9759135,56.0763873 C80.7338424,54.6592638 81.2836897,54.9267111 82.0894408,54.3049829 C82.3280538,54.1208958 82.6600371,54.1625759 82.9712714,53.8777619 C83.1856773,53.6832547 82.8467777,53.0997333 83.1925936,52.8496526 C84.3199536,52.0334173 84.1435874,53.3532872 85.0634578,53.4158074 C87.6432446,53.5894745 84.6450205,52.0091039 84.7107255,51.1477151 C84.8698009,49.0463432 87.2420981,50.6024004 88.4144141,50.2863263 C87.2490145,49.9945655 87.7020333,49.10539 87.4668785,48.3620948 C87.1971421,47.5145993 86.0317424,46.8685577 87.3181777,46.038429 L87.608663,45.8925486 C89.1648347,45.1700935 89.2720377,45.9550688 89.9187134,44.2982847 C90.146952,43.7147632 89.735431,43.0548282 90.7313809,43.0027281 C91.4852596,42.961048 91.5267575,43.5862496 91.14636,44.1315642 C92.3636321,43.8710636 92.1941822,44.961693 92.6610338,45.632048 C93.0587221,45.2395603 93.4979083,44.7810792 94.099628,44.7116124 C92.7820693,42.8915812 94.9952913,43.4160558 94.8189251,41.9780922 C94.6702243,40.7832626 92.5227074,41.7592717 92.9722681,40.3838282 C93.6950234,38.1608894 95.0056658,41.3633107 95.0782871,41.4049908 C96.0189064,41.9746189 96.292101,40.2448946 97.5232057,40.0990142 C97.4505844,40.8944095 96.8073667,42.3601598 98.3082079,41.7592717 C99.1416243,41.4258308 99.0724611,39.8003068 100.42806,39.9288204 C99.7156787,39.2202587 99.5393126,37.9733289 101.012488,38.2303562 C101.427468,38.3032964 101.697204,39.1889986 102.202095,39.3835057 C102.800357,39.6127463 103.063177,39.0847983 103.498905,39.213312 C104.889085,39.6266397 106.988188,43.214602 108.119006,42.9992548 L108.219292,42.7318074 C108.316121,43.4646826 109.436564,44.1385109 109.948372,44.5518386 C110.321853,44.8540194 110.664211,45.1388334 111.068816,45.3854407 C111.393883,45.5834212 112.116638,45.7362482 112.261881,45.9759088 C111.297054,46.1947294 110.480929,50.8073275 111.428464,51.4498958 C111.518376,51.248442 111.504544,50.2828529 111.629037,50.1890727 C111.936814,49.9563588 112.306837,50.6475538 112.704525,50.6128204 C112.832477,50.1439192 112.279171,49.6854381 112.261881,49.11581 C112.24459,48.5392352 112.490119,47.6049062 113.150628,48.2995746 C113.050341,48.0529674 113.036508,47.7438399 113.212874,47.5701728 C113.285496,47.653533 113.37195,47.7299465 113.448029,47.8167801 C113.468778,47.7056332 113.499902,47.6500597 113.531025,47.5528061 C113.95292,47.9869739 114.32986,47.7299465 114.080872,47.2645187 C113.831885,46.8095109 112.956971,46.8442443 113.717766,46.3336631 C114.402481,45.8751819 116.065856,46.0766358 116.684866,46.5698503 L116.760946,46.5698503 C117.857182,46.5524836 119.68309,47.0422248 120.06003,48.0321273 C120.22948,48.4801884 120.554547,49.6819647 120.734371,48.3794615 C120.79316,47.9418204 120.634084,46.8268776 120.516507,46.4274433 C120.910737,46.3649231 121.201222,46.566377 121.54358,46.7122573 C121.616201,46.7435174 121.8064,46.9588646 121.930894,47.0213848 C122.086511,47.0977983 122.338957,47.0283315 122.50149,47.1394784 C122.791976,47.3374589 122.996007,47.896667 123.148166,48.2127411 C123.217329,48.3586214 123.483607,49.0046631 123.663432,49.1088633 C123.684181,49.0498165 123.729137,48.9247762 123.756802,48.8553094 C124.880704,49.0602365 123.594269,47.5632261 123.819049,46.8685577 C124.009248,46.2885096 124.071495,46.3753432 124.683589,46.3440831 C125.081277,46.323243 125.748702,46.5316436 125.586168,45.8994953 C124.434601,45.8647619 123.998873,45.5347944 123.352197,44.5344719 C123.670348,44.148931 124.251319,44.291338 124.607509,43.7807567 C123.991957,43.4924693 123.355656,44.027364 122.674398,43.6835031 C122.338957,43.5133094 122.100344,43.2007086 121.816775,42.9541013 C121.367214,42.5685604 121.28076,42.8533744 121.367214,42.2316462 C121.384505,42.1204992 121.716488,41.5022444 121.789109,41.3528907 C121.958559,40.9916631 122.076137,41.0090298 122.169507,40.5505487 C122.300917,39.9079804 122.304375,39.1959453 123.134333,39.7933601 C123.36603,39.1959453 124.140658,39.6023263 124.334315,38.7478842 C124.393103,38.4839102 124.164865,38.3032964 124.26861,37.9872223 C124.355064,37.7336683 124.732003,37.4141208 124.929118,37.2335071 L124.704338,36.8583861 C124.707796,36.1776111 124.597135,34.4583068 125.682997,34.5937671 C126.298549,34.6701807 126.059936,35.212022 126.806899,34.8230077 C126.959058,34.7465942 127.287583,34.4374668 127.401702,34.3124264 C127.49853,34.2047528 127.740602,33.8087919 127.789016,33.7671118 C128.031087,33.5517645 128.867961,33.4197776 128.916376,33.1696969 C128.961332,32.9300363 128.00688,32.2596813 127.83743,32.0512808 C127.515821,31.6553198 127.48124,31.5615396 127.477781,30.8911846 C127.477781,30.4535435 127.339455,29.8213953 127.892761,29.7102483 C128.435692,30.6549973 129.085826,29.2969206 129.196487,28.8488595 C129.255275,28.6091989 129.269108,28.1889245 129.35902,27.9666306 C129.486972,27.6505565 129.895035,27.8068569 129.787832,27.2233354 C130.351512,27.3761625 131.053518,28.0673575 131.153805,27.0323016 C131.171096,26.8343211 130.973981,26.7752743 130.967064,26.6189739 C130.95669,26.4522535 131.063893,26.2855331 131.063893,26.1674395 C131.060434,25.8339986 131.129598,25.5769713 131.077725,25.2608972 L131.077725,25.1844837 C131.402792,25.1393303 131.755525,25.2018504 132.052926,25.3338374 C132.60969,25.2504772 132.958964,26.1257594 132.886343,26.5911872 C132.990087,26.5599271 133.093832,26.5703472 133.187202,26.5460338 C133.256366,26.8030611 133.380859,27.0600884 133.571058,27.2719622 C133.757799,27.1712353 133.968746,26.9975682 134.13128,26.9072613 C134.020619,26.6641274 133.809671,26.4557269 133.574516,26.3306866 C134.062117,26.4314135 134.397558,26.1083927 133.875376,25.7888452 C134.065575,25.4936111 134.069033,25.3928842 133.79238,25.2678439 C133.709385,25.5040312 133.522644,25.6603315 133.249449,25.7089583 C132.844845,24.8371495 134.158945,24.7086358 134.667295,24.8788296 C134.584299,24.5002353 134.328395,22.2390897 135.123772,23.2081521 C135.5595,22.7218842 135.888025,23.3991859 136.251132,23.6214798 C136.735274,23.1595253 136.603864,22.4474902 137.150253,22.0480559 C137.917964,22.628104 136.956596,23.8541937 138.39519,24.1355344 C139.097197,24.2709948 140.836651,24.385615 141.199758,23.6805266 L141.410705,23.7222067 C142.365157,22.9233381 142.475818,23.9722873 143.451019,23.968814 C144.232563,23.9653407 144.789327,22.7253576 145.532831,23.3922392 C145.840607,22.749671 146.086137,23.4026593 146.469992,23.2289922 C146.698231,23.1247919 147.196206,22.6454707 147.382946,22.496117 C147.905128,22.079316 148.589844,21.8327087 148.745461,21.0199467 C148.89762,20.2245513 148.572553,19.7174434 148.084953,19.3840026 C147.680348,19.1096086 147.299951,19.1860221 147.230787,18.6615474 C147.213497,18.5434538 147.569687,18.0050858 147.528189,17.6612249 L147.528189,17.5778647 C146.871139,17.0707568 146.431953,16.8310962 145.55358,17.1471703 C144.868865,17.3937776 144.353599,17.8974122 143.540931,17.8105787 C143.575513,17.5674447 143.489059,17.3382041 143.582429,17.0950702 C143.153618,17.03255 142.185333,16.8519363 142.776678,16.2718882 C142.206082,16.1815813 141.438371,15.5112263 141.583613,14.8756047 C141.628569,14.8617113 141.825684,14.9311781 141.867182,14.9415982 C141.894848,14.8756047 141.898306,14.7505644 141.974385,14.7227776 C142.147293,15.0284317 142.309827,15.0666385 142.60377,15.0840052 C142.576105,14.8408713 142.693682,14.5143771 142.710973,14.2990299 C143.212406,14.7783511 143.904038,14.9033914 143.95591,15.7404668 C144.000867,15.6953134 144.052739,15.66058 144.108069,15.6293199 C144.308643,15.9940208 144.108069,16.6539558 144.581837,16.7407893 C144.547256,16.5358621 144.602586,16.2406281 144.637168,16.0530676 C144.740913,15.4903862 144.803159,15.9176073 144.664833,15.3549259 C144.561088,14.9311781 144.083862,14.4865904 144.191065,14.1253628 C144.619877,14.2851365 145.076354,15.0284317 145.332258,15.3583992 C145.432544,14.868658 145.270011,14.5213238 145.819858,14.2295631 C146.093053,14.6394174 146.048097,15.2993524 146.290168,15.5980598 C146.328208,15.4730195 146.41812,15.3514525 146.466534,15.2298856 C146.715522,15.5251196 146.909179,15.924554 147.296492,15.9905475 C147.8083,15.2333589 147.199664,14.9624382 146.964509,14.2851365 C147.434819,14.1114694 147.251536,13.7537152 146.964509,13.4654278 C147.227329,13.3994343 147.434819,13.2466073 147.590436,13 C147.946626,13.2987074 148.261319,14.2469298 147.946626,14.5386905 C148.282068,14.9033914 148.1472,15.3514525 148.185239,15.8307737 C148.219821,16.2406281 148.344315,17.0638101 148.683214,17.2826307 C149.278018,17.671645 149.347181,17.0950702 149.852072,16.8762497 C150.256677,16.7025826 151.328706,16.9352965 150.571369,16.1051677 C151.231878,15.6779467 152.058378,17.1680104 152.099876,17.7341651 L152.099876,17.8974122 C152.431859,18.3176866 152.67393,18.9498348 153.154614,19.1269753 C153.638756,19.3041157 154.154022,18.8977347 154.624332,18.9915149 C154.517129,19.1235019 154.482547,19.3214824 154.264683,19.439576 C154.596667,19.4604161 154.935566,19.4499961 155.26755,19.4638894 C155.419709,19.7730169 155.772441,19.7452301 156.073301,19.6236632 C155.955723,19.804277 155.934974,20.0230975 155.862353,20.1828712 C156.349953,19.7695435 157.10729,19.9188972 157.643305,19.6167165 C158.186236,19.3110624 158.777581,19.0401417 159.420799,19.4499961 C159.033485,19.9953108 158.165487,20.210658 159.078441,20.7351326 C159.649037,21.0651001 160.081307,20.738606 160.503203,20.3773784 C160.700318,20.7038725 161.098006,20.5961989 161.239791,20.7524993 C161.419615,20.9504798 161.436906,21.3672809 161.557941,21.4992678 C162.211533,22.211303 162.121621,20.8532262 162.785588,21.5791547 C163.605172,22.2772965 164.372883,22.2460364 165.233965,21.6798816 C165.714649,21.3638075 165.887557,21.0303667 166.409739,21.2109805 C166.55844,21.2630806 167.018375,21.9890091 167.173992,22.1487828 C167.329609,22.3085565 167.381481,22.5308504 167.602804,22.7114642 C167.744588,22.8295578 168.045448,22.6628374 168.204523,22.7739844 C168.387806,22.902498 168.412013,23.3158257 168.657542,23.4651794 C168.882323,23.6006398 169.09327,23.4582327 169.314593,23.5415929 C169.660408,23.6701066 170.075388,23.9931274 170.476534,23.9514473 C171.538189,23.8403003 170.493825,23.5346463 170.507657,23.2567789 C170.524948,22.9094447 171.147417,22.4370702 171.596978,22.3467633 C172.122618,22.2390897 172.520306,22.8538712 173.049405,22.211303 C173.243061,22.5308504 173.485133,22.6593641 173.637292,22.3120299 L173.637292,22.2286697 C172.440769,21.3394941 173.855156,21.0685734 174.532955,20.8358595 C175.134675,20.6309323 175.245336,20.6552457 175.681064,20.1828712 C175.757143,20.099511 176.175581,19.0158283 176.576727,19.7243901 C176.798049,20.1168777 175.930051,20.6413524 175.760601,20.9157464 C175.445909,21.4228543 175.535821,21.6972483 175.273001,22.0654226 C174.89952,22.5898972 173.20848,23.4860195 174.719696,24.0695409 C175.1243,23.4825461 176.521396,22.4370702 177.20957,22.4613836 C177.053953,22.6558907 176.362321,23.2463589 176.490273,23.5415929 C176.694304,24.0104941 177.296024,23.2741456 177.403227,23.8854538 C177.468932,24.2640481 176.746177,24.5905422 176.739261,25.0142899 C176.735802,25.3720442 177.271817,25.3338374 177.181905,25.9208322 C177.901202,25.2365838 177.47239,25.3338374 178.37497,25.3407841 C178.897152,25.3442574 179.377836,25.451931 179.751317,25.0142899 C179.920767,24.8163094 180.187045,23.8090403 180.014137,23.5936931 C179.678696,23.1803654 178.278141,24.1285877 178.319639,22.8712379 C178.855654,22.7739844 179.097725,22.4023368 179.519621,22.1383628 C179.668321,22.0445825 179.910393,22.1244694 180.097133,21.9751157 C180.245834,21.8570221 180.314997,21.4367477 180.494822,21.3811742 C180.94784,21.2422405 180.633148,21.3777009 180.975506,21.4819011 C180.598566,21.3638075 181.611807,22.1279427 181.38011,21.8778621 C181.369736,21.8674421 181.684428,21.9542756 181.791631,22.0619492 C181.881543,22.1487828 181.974914,22.5794772 182.050993,22.7184109 L182.050993,22.8017711 C182.068284,23.6284265 182.860202,25.2087971 183.416966,23.6978933 C183.302847,23.6527399 183.167979,23.5485396 183.040027,23.5242262 C183.012361,23.4582327 183.012361,23.3922392 183.040027,23.3262457 C183.679786,23.2255188 184.471705,23.4964395 184.789855,24.1529011 C185.170253,24.9309297 184.281506,25.3581508 183.866527,25.9104122 C183.416966,26.5043537 183.133397,27.1538686 182.704585,27.6401365 C182.635422,27.7200233 182.28269,27.5394096 182.20661,27.6470832 C182.0752,27.8311703 182.293064,28.1854512 182.210069,28.2861781 C181.947248,28.6126722 181.912667,28.6647724 181.431983,28.2931248 C181.390485,28.640459 181.176079,28.7689726 180.837179,28.7099258 C181.017004,29.4184876 181.71901,29.1267269 181.995663,29.5296345 C182.45214,30.1965162 181.449273,30.2069362 180.992796,30.1062093 C181.705177,30.6098439 181.677512,30.7904577 181.151872,31.5024928 C180.961673,31.7595201 180.778391,31.9713939 180.581275,32.2110545 C180.608941,32.1797945 180.024512,32.7633159 180.117882,32.7216358 C179.274091,33.0863367 179.581867,32.6417489 179.872353,31.9991807 C180.052177,31.596273 180.228543,30.8633978 179.9346,30.5160637 C179.706361,30.8877112 179.668321,32.1971612 178.949024,31.6726865 C178.931734,31.9852873 178.634332,32.4298751 178.236643,32.2284213 C177.956533,32.0894876 178.039528,31.6587932 178.042987,31.342719 C177.565761,31.6969999 177.365187,32.2944147 177.365187,32.8744629 C177.244152,32.6938491 177.143865,32.3430415 176.905252,32.1832678 C176.884503,32.3847216 176.715053,32.541022 176.666639,32.6903757 C176.396903,32.3152548 175.943884,32.388195 175.840139,32.8744629 C175.770976,33.2044303 176.210162,33.5934447 176.227453,33.9129921 C175.729478,33.8400519 175.705271,33.992879 175.532363,34.2533796 C175.643024,34.0866592 175.442451,35.1356085 175.438993,35.090455 C175.456283,35.2537021 175.694896,35.72955 175.76406,35.9101638 C175.940426,36.3616982 175.660315,36.827126 176.320823,36.3929583 C176.663181,36.1671911 177.506972,34.5555604 177.174989,36.1394043 C177.102367,36.4867385 176.531771,37.862182 176.255118,37.9629089 L176.203246,38.3553965 C176.282783,39.0604849 175.72602,39.5745396 175.802099,40.300468 C175.010181,40.2414212 174.736986,41.0611299 174.346214,41.609918 C173.872446,42.2733263 173.488591,42.3045864 173.042488,42.9228412 C172.862664,43.1694485 172.824624,43.5272027 172.689756,43.7668633 C172.537597,44.037784 172.309358,44.2149245 172.153741,44.4858451 C171.845965,45.0207398 171.534731,45.7501416 171.787176,46.3961832 C172.153741,47.3339856 172.81425,47.0595915 173.474758,47.3652456 C174.007315,47.6118529 174.56062,48.0946475 175.06897,48.4906084 C175.743311,49.0150831 176.185955,49.6854381 176.981332,50.0640324 C177.814748,50.4599934 178.157106,50.6406071 178.720786,51.4637892 C179.644114,52.8183926 182.030244,53.2942404 182.268857,54.9649179 C182.870577,54.4057099 182.946656,54.9406045 183.472297,54.9197645 C183.949523,54.9023978 184.101682,54.4647567 184.693027,54.7183106 L184.886684,54.7183106 C185.052675,54.9996513 185.294747,55.2775187 185.571399,55.5032859 L185.668228,55.5032859 C186.083207,55.9131403 186.878584,56.3125746 187.345435,56.5800219 C187.943697,56.9273561 188.566165,57.2121702 189.202467,57.4622508 C190.744806,58.0700856 191.588597,59.1989218 192.771287,60.3972248 C193.767237,61.4079673 194.984509,62.3110362 196.402354,62.6792105 C197.028281,62.8424575 197.643833,62.8528776 198.23172,63.0439114 C198.892229,63.2592586 199.442076,63.7698399 200.206329,63.7316331 L200.399986,63.7316331 C200.763093,63.6343795 201.848955,64.4784016 202.070277,64.8326825 C202.350388,65.284217 202.129066,66.1247657 202.350388,66.6700804 C202.671997,67.4654757 203.246051,67.8961701 203.920393,68.240031 C204.622399,68.5977852 205.262158,69.1222599 205.984914,69.438334 C207.38201,70.0496422 208.73415,71.1715316 210.304155,71.1784783 C211.977904,71.185425 213.475287,70.657477 214.84126,69.6363145 C215.702341,68.9937462 216.127695,68.108044 216.283312,67.052148 C216.445845,65.964992 216.71904,65.4856708 217.472919,64.6103886 L217.569747,64.513135 C217.701157,63.7038464 218.959927,62.9779179 219.347241,62.1582092 C219.679224,61.4600674 219.495942,60.7688724 219.734555,60.0082105 C220.004291,59.150295 220.92762,58.5355135 220.979492,57.6532846 C221.000241,57.3163704 220.723589,56.9308295 220.761628,56.5001351 C220.79621,56.0972274 221.038281,55.5831728 221.180066,55.2011052 L220.972576,55.1316383 C220.944911,52.7489257 223.306833,50.984468 223.23767,48.7615291 C223.203089,47.6986865 222.774277,46.6844706 222.729321,45.5556345 C222.67399,44.2739713 223.687231,43.3153289 223.510865,42.0996592 L223.414036,42.0024056 C223.510865,41.3042639 223.030181,40.817996 222.736237,40.2379479 C222.338549,39.4529726 222.293593,39.1751052 222.559871,38.299823 C222.767361,37.6121013 223.642275,34.8021677 224.472233,36.1185643 C224.506815,35.6496631 224.302783,35.201602 224.285493,34.8473211 C224.268202,34.4687268 224.503357,34.0102457 224.288951,33.5726046 L224.192122,33.475351 C224.282034,32.5340753 223.739103,32.0755942 224.116043,31.3253523 C224.399612,30.7557242 225.45435,29.6755149 225.948867,29.3663875 C226.101026,29.6616215 226.343097,29.9047555 226.616292,30.0159024 C226.71312,29.5504746 226.505631,29.1163068 226.343097,28.7099258 C226.519463,28.7099258 226.813407,28.5779388 226.969024,28.5814122 C226.834156,28.4390051 225.852039,28.1507178 225.703338,28.122931 C225.056662,28.0117841 224.92871,28.2861781 224.17829,28.3730116 C223.953509,27.8103302 225.475099,25.2018504 225.845122,24.5592821 C225.952325,23.9966007 226.332723,23.2776189 226.723495,22.8781846 C226.996689,23.2602522 226.892945,23.8576671 227.304466,24.2640481 C227.684863,24.0278608 227.543079,24.090381 227.985723,24.0625942 C227.57766,22.8642912 227.31484,22.8191378 227.944225,21.5235812 C228.40416,20.5788322 228.677355,19.6201898 228.871012,18.5851339 L228.677355,18.7796411 C228.784558,17.824472 229.34478,17.0186567 229.455441,15.9940208 C229.621432,14.483117 230.212778,14.8096112 231.288265,14.1774629 C231.634081,13.9725358 233.300914,12.2428114 233.536069,13.5835215 C233.584483,13.8613888 232.097474,15.4903862 231.723993,15.6084798 C232.159721,15.2958791 233.010428,14.726251 233.43924,14.5734239 C233.504945,14.7401443 233.556818,14.8304512 233.563734,15.0388517 C233.643272,15.0527451 233.726267,15.0631651 233.805805,15.0701118 C233.795431,15.2194655 233.868052,15.4660728 233.857677,15.6397399 C233.923383,15.5633264 234.137788,15.4591261 234.234617,15.3583992 C234.967747,15.6779467 234.767173,16.626169 234.895125,17.2895774 C235.040368,18.0293992 235.687044,18.6754408 235.683586,19.1964421 C235.683586,19.3562158 235.341228,19.9953108 235.306646,20.3252783 C235.265148,20.7108192 235.310104,21.1172002 235.306646,21.5062145 C235.29973,22.2078296 235.040368,22.9302847 235.621339,23.3887659 C236.240349,23.8785071 237.250132,23.1352119 237.734274,23.6457932 C238.325619,24.2744681 237.270881,25.2192171 237.087598,25.7436918 C236.831694,26.4904603 236.862818,27.0392483 237.429956,27.4768894 C238.204584,28.0708309 238.460487,27.6331898 238.429364,28.8731729 L238.429364,29.168407 C239.736548,29.3420741 239.60168,29.5192145 239.07604,30.5890038 C238.844343,31.0613783 238.266831,32.5340753 239.276613,32.388195 C239.259322,32.256208 239.203992,32.245788 239.217824,32.1033809 C239.556724,32.0304408 239.950954,31.9748673 240.29677,31.8741404 C240.587255,32.5653354 240.206858,34.4131534 240.186109,35.2432821 C240.179193,35.475996 240.020117,35.7677567 240.044324,35.9761573 C240.075448,36.267918 240.386682,36.410325 240.386682,36.7159791 C240.386682,37.2925539 239.905998,37.8899687 239.798795,38.4491768 C239.580931,39.609273 240.307145,40.7693692 240.746331,41.7106449 C241.265055,42.8221143 240.773996,44.3330181 241.884065,45.3368139 C243.239664,46.566377 244.387773,45.6910948 244.958369,44.2878646 C245.307643,44.3503848 245.739913,44.5830987 246.113394,44.555312 C246.749695,44.5032118 246.919145,43.7911767 247.309917,43.6835031 C248.070712,43.4681559 248.271285,44.4163783 248.025756,45.1041 C248.20558,45.09368 248.419986,45.2187203 248.568687,45.225667 C248.105294,46.0974758 248.274744,46.2225161 248.90067,46.8095109 C249.301817,47.1811585 250.162899,47.3965057 250.432635,47.6813198 C250.989399,48.2717879 250.757702,48.8726761 251.608409,49.2860038 C252.134049,49.5430311 252.804932,49.4457775 253.261409,49.7479582 L253.164581,50.0431923 C253.164581,50.2376995 253.164581,50.43568 253.164581,50.6301871 L253.261409,50.6301871 C253.50348,50.6788139 253.63489,50.873321 253.932292,50.8385876 C253.773217,51.6721897 253.029713,51.9326904 253.078127,53.0719465 C254.298857,52.7836591 253.54152,53.7457749 253.35478,54.082689 C252.988215,54.742624 252.984757,55.0969049 253.171497,55.8228334 C253.306365,56.3542547 253.759384,57.1635434 253.759384,57.6914914 C253.759384,58.0770323 253.444692,58.2472261 253.455066,58.6501338 C253.465441,58.9557879 253.714428,59.2301819 253.797424,59.5532027 C253.987623,60.2791312 253.679847,60.7897124 253.745552,61.4392274 C253.776675,61.7622482 254.170905,62.0887423 254.150156,62.3978698 C254.125949,62.7903574 253.67293,62.644477 253.645265,62.9397111 C253.548436,63.9157202 254.416434,64.6381753 254.80029,65.4544107 C255.121899,66.1386591 255.339763,67.1598216 255.996813,67.590516 C256.415251,67.5245225 257.473447,67.295282 257.570276,67.9065902 C257.635981,68.3233912 257.003138,68.250451 256.96164,68.5665251 C256.902851,69.0215329 257.134548,68.9798528 257.2625,69.3758138 C257.61869,70.5011766 258.01292,71.702953 258.241159,72.9047293 C258.438274,73.9397852 258.376027,75.1033548 258.047502,76.1106239 C257.774307,76.9511727 256.093642,78.7468905 257.362786,79.5457592 L257.459615,79.6430127 C257.445782,80.1918008 257.65673,80.7753222 258.099374,81.087923 C258.545477,80.3828346 257.895343,80.011187 257.757016,79.3547254 C258.306864,79.6951129 258.666512,79.1463248 259.209443,79.4311389 C258.777173,80.1258073 259.333937,80.7961623 259.392726,81.5081974 C259.392726,81.4873573 259.278606,82.4529464 259.299355,82.407793 C259.167945,82.6787136 258.742592,82.8002806 258.618098,83.0712013 C257.905717,84.6098918 259.531052,86.033962 260.634205,86.7980972 C261.204801,87.1940582 261.706234,87.5379191 262.235333,87.9720868 C262.546567,88.2291141 262.688351,88.6007617 263.14137,88.562555 C263.459521,88.5347682 263.729257,87.8991466 263.957496,87.9269334 C264.56959,88.0102936 264.555757,89.2224899 265.140186,89.6427643 C265.631245,89.9935719 266.450829,90.1846057 267.0318,90.2193391 C267.080214,89.913685 266.997218,89.5455108 266.827768,89.2398567 C267.699224,88.8404223 267.955128,91.8240231 267.896339,92.4804847 L267.879049,92.7201453 C268.010459,93.0292728 268.529183,93.9392884 268.940703,93.9740218 C269.653084,94.0295953 269.020241,93.3349269 269.407555,93.0084327 C270.624827,91.9872702 270.192557,94.59575 270.666325,94.7937305 C270.918771,94.9014041 271.105511,94.4116629 271.371789,94.4568163 C271.700315,94.5089165 271.731438,94.8006772 272.025382,94.8979308 C272.270911,94.9778176 273.093953,95.0160244 273.270319,95.2522116 C273.609219,95.7072194 273.04208,95.9121466 273.152741,96.342841 C273.270319,96.8013222 273.9827,97.4647305 274.442635,97.4161037 C274.331974,96.0510803 274.895654,96.8638423 275.628784,96.9124691 C275.791317,97.7356512 276.714646,97.6939711 276.538279,98.4789463 C276.998215,98.5275731 276.963633,98.8228072 277.15729,99.1076212 C277.25066,99.2465549 277.122708,99.5730491 277.21262,99.7362961 C277.323282,99.9412233 277.696763,99.9620634 277.793591,100.208671 C278.346897,101.622321 276.9498,100.399704 276.393037,100.496958 C275.279509,100.691465 275.929643,102.108589 276.310041,102.61917 C276.915219,103.435405 277.824715,103.602126 278.50943,104.300268 L278.689254,104.571188 C279.021238,105.31101 279.871945,105.380477 279.847738,106.293966 C279.840822,106.561413 279.446591,106.606567 279.495006,106.992108 C279.539962,107.349862 280.003355,107.516582 280.117474,107.822236 C280.33188,108.409231 279.840822,108.944126 280.14514,109.454707 C280.300757,109.718681 280.899018,109.711734 280.999305,109.920135 C281.144548,110.225789 280.85752,110.430716 280.850604,110.72595 C280.812564,111.965933 280.608533,113.153816 281.058094,114.338226 C281.524945,115.567789 281.794682,116.644525 281.946841,117.953975 C282.143956,117.644847 282.399859,117.245413 282.742217,117.037013 C283.475347,117.547594 283.247108,118.978611 284.364094,119.221745 L284.454006,119.221745 C284.554293,118.426349 283.890326,117.846301 283.911075,117.092586 C283.928366,116.384024 284.692619,115.324655 285.315088,115.724089 C285.8926,116.095737 285.913349,117.495494 286.345619,118.044282 C286.767515,118.579176 287.670094,119.433619 288.31677,119.576026 C288.334061,119.127964 288.403224,118.579176 288.330603,118.134589 C288.264898,117.738628 287.725425,116.991859 287.96058,116.557691 C288.375559,115.790083 288.54155,117.2732 288.704084,117.509387 C288.998027,117.929661 289.883316,118.145009 289.955937,118.766737 C290.000894,119.131438 289.596289,119.089758 289.582456,119.329418 C289.554791,119.82958 289.703492,119.753166 289.810695,120.17344 C289.942105,120.701388 290.128845,121.21197 290.128845,121.774651 C290.128845,123.000741 289.589373,124.084423 289.589373,125.373033 L289.679285,125.553647 C289.814153,125.911401 289.83836,126.248316 289.506377,126.449769 C289.738073,126.915197 290.291379,128.03014 289.433755,128.203807 C290.070057,128.575455 290.357084,128.342741 290.75823,128.182967 C291.086756,128.054453 290.761689,127.866893 291.404906,127.92594 C291.536316,127.939833 292.331693,128.262854 292.428521,128.367054 C292.895373,128.856795 294.195641,131.788296 292.65676,131.447909 C292.964536,132.330137 294.10227,133.028279 294.728197,133.650007 C294.876898,131.538215 296.917212,134.813577 297.152367,135.595079 C297.646884,137.22755 298.030739,139.283768 299.763277,139.94023 L299.943101,140.030537 C301.170748,140.971812 300.299292,141.930455 300.572486,143.191278 C300.907928,144.743862 302.664673,144.174234 303.235269,145.285703 C303.619125,146.032472 302.958616,146.275605 302.730378,146.90428 C302.598968,147.265508 302.6128,148.001856 302.643924,148.397817 C302.72692,149.405087 303.598376,150.443616 304.373004,151.058397 C303.352847,152.291434 303.072736,153.46195 303.093485,155.045794 L303.003572,155.407022 C303.003572,156.032223 302.944784,156.688685 303.003572,157.30694 C303.024321,157.52576 303.204146,157.873094 303.17648,158.074548 C303.110775,158.533029 302.85833,158.592076 302.709629,159.029717 C302.605884,159.338845 302.716545,159.651445 302.647382,159.964046 C302.619717,160.09256 302.702713,160.29054 302.654298,160.408634 C302.564386,160.623981 302.246236,160.651768 302.190905,160.808068 C301.959208,161.457583 302.197821,161.923011 302.377646,162.600313 C302.55747,163.270668 302.861788,163.902816 303.055445,164.580118 C303.235269,165.208793 303.114234,165.809681 303.207604,166.445302 C303.394344,167.702652 303.349388,169.081569 304.068686,170.154832 C304.860604,171.335768 304.37992,171.099581 304.061769,172.391664 C303.892319,173.075912 303.999522,173.874781 303.999522,174.579869 L303.819698,175.031404 C303.809324,176.1915 303.539587,176.12898 302.827206,176.917428 C302.4641,177.320336 302.536721,177.494003 302.377646,177.921224 C302.215112,178.355392 302.177072,178.452646 301.931543,178.824293 C301.423194,179.598848 301.450859,179.762096 301.302158,180.703371 C301.170748,181.530027 300.77306,182.238588 300.43416,182.985357 C300.119468,183.680025 299.694114,184.444161 299.424378,185.069362 C299.168474,185.663304 299.223804,186.410072 298.936777,187.059587 C298.359265,188.375984 296.633643,189.68196 296.882631,191.293591 C296.937961,191.658292 297.301068,191.887532 297.384064,192.25918 C297.498183,192.766288 297.25957,192.807968 297.173116,193.207402 C297.072829,193.665884 297.031331,193.943751 296.816925,194.298032 C296.612894,194.634946 296.208289,194.7322 296.073421,195.197627 L295.983509,195.454655 C296.083796,196.461924 295.468243,196.746738 295.08093,197.53866 C294.700532,198.313215 294.928771,198.782116 294.275178,199.504571 C293.376057,200.494474 291.640061,201.849077 291.56744,203.304408 C291.519025,204.235263 291.927088,204.916038 290.830852,205.430093 C290.446996,205.610707 289.952479,205.496086 289.565165,205.73922 C289.122521,206.020561 289.10523,206.343582 288.800912,206.781223 C288.071241,207.830172 287.22745,207.805859 286.103548,208.045519 C284.97273,208.28518 284.61654,209.205616 284.063234,210.132998 C283.575634,210.949233 283.212527,212.17185 282.517437,212.824838 C282.071334,213.241639 281.85347,213.047132 281.569901,213.745274 C281.355495,214.273222 281.410826,214.731703 281.033886,215.259651 L281.033886,215.440264 C281.044261,216.034206 280.591242,216.169666 280.262717,216.569101 C279.941108,216.958115 279.889236,217.413123 279.59875,217.77435 C279.20452,218.264092 278.696171,218.354398 278.305399,218.88582 C278.011455,219.285254 277.835089,219.781942 277.64489,220.23695 C277.257577,221.160859 277.181497,222.136868 276.804558,223.036463 C276.538279,223.672085 276.393037,223.526205 276.437993,224.2174 C276.469116,224.679354 276.811474,224.932908 276.441451,225.384443 C276.078344,225.169095 276.202838,223.984686 275.535413,224.755768 C274.805742,225.596316 276.064512,225.235089 275.998807,225.846397 C275.943476,226.384765 274.791909,225.929757 274.456468,226.110371 C273.913537,226.402132 273.885871,227.253101 273.609219,227.704635 C273.377522,228.079756 272.89338,228.246476 272.672057,228.576444 C272.46111,228.895991 272.530273,229.298899 272.367739,229.54898 C272.053047,230.042194 271.600028,230.101241 271.392538,230.636136 C271.319917,230.820223 271.544697,231.11893 271.478992,231.355117 C271.357957,231.782339 270.853066,232.077573 270.69399,232.515214 C270.462294,233.143889 270.586787,233.953177 270.586787,234.616586 C270.323967,235.516181 269.718789,236.224743 269.414471,237.145179 C269.206982,237.777327 268.930329,237.923207 268.563764,238.499782 C268.231781,239.020783 268.342442,239.20487 268.245613,239.812705 C268.17645,240.239926 267.920546,240.608101 267.882507,241.014482 C267.823718,241.660523 268.155701,241.702203 268.342442,242.209311 C268.712465,243.220054 267.87559,244.067549 268.598346,245.026192 C267.702682,245.408259 266.979927,245.522879 266.156885,246.123768 C265.102147,246.89485 264.203025,247.05115 262.888925,246.919163 C261.848019,246.811489 260.900483,246.512782 259.828454,246.471102 C258.766799,246.425948 257.871136,246.606562 256.809481,246.648242 L256.449832,246.919163 C252.919051,246.91569 249.381355,248.843394 246.950269,251.299047 C246.127227,252.129176 245.681124,252.052762 244.654051,252.35147 C244.138785,252.500824 243.907088,252.921098 243.301911,252.737011 C242.859266,252.60155 242.679442,251.906882 242.129595,252.073602 C241.258138,252.337576 241.984352,253.626186 242.544574,253.758173 C243.011425,253.86932 243.125544,253.042665 243.402197,253.799853 C243.481735,254.022147 243.187791,254.744602 243.104795,254.97037 C242.994134,255.265604 242.845433,256.151306 242.309419,255.977639 C242.115762,255.915119 241.901356,255.018996 241.794153,254.772389 C241.520958,254.147188 240.514634,252.462617 239.978619,253.799853 C239.73309,253.570613 238.827052,250.420292 238.083548,251.719322 L238.083548,251.809628 C237.336586,251.441454 236.862818,250.871826 236.012111,250.628692 C235.486471,250.479338 234.179286,250.020857 235.361977,249.465123 C235.548717,249.79509 235.922199,250.066011 236.326803,249.996544 C236.302596,250.000017 237.381542,249.260195 237.367709,249.284509 C237.934847,248.357127 237.053017,247.322071 236.012111,247.856965 C235.496845,248.120939 235.65592,248.489114 235.368893,248.746141 C235.109531,248.978855 234.34182,249.149048 233.985629,249.190729 C233.017345,249.298402 232.453665,248.770454 231.893443,247.957692 C233.107257,247.784025 233.145297,248.52732 234.168912,247.422798 C234.438648,247.131037 235.029993,246.776756 234.940081,246.321748 C234.853627,245.880634 234.165454,245.76254 233.933757,245.231119 C233.712435,244.720537 234.241533,244.466983 233.494571,244.40099 C233.08305,244.362783 232.436374,244.956725 232.045602,245.123445 C231.419675,245.394366 229.936125,245.508986 229.818547,246.307855 C230.382227,246.467628 232.332629,246.054301 232.415625,246.745496 C232.564326,247.971586 230.185112,248.065366 229.566102,248.200826 C228.424909,248.45438 224.057254,253.268432 223.040555,251.722795 L222.950643,251.722795 C222.397338,251.566495 221.67804,251.288627 221.214647,250.910033 C220.713214,250.496705 220.491892,249.895817 219.973168,249.510276 C219.440611,249.114315 218.721314,248.978855 218.154176,248.631521 C217.517875,248.242506 217.154768,247.495738 216.463136,247.290811 C215.954787,247.141457 215.380732,247.443638 214.879299,247.381117 C214.087381,247.283864 213.838393,246.662136 213.132929,246.363428 C212.67991,246.172394 211.836119,246.054301 211.396933,246.377322 C210.968121,246.696869 211.113364,247.488791 210.248824,247.290811 C209.896092,247.210924 209.820012,246.92611 209.529527,246.745496 C209.11109,246.484995 209.156046,246.842749 208.806772,246.359955 C208.412541,245.811167 208.754899,244.887258 207.817738,244.758744 L207.727826,244.758744 C206.700753,243.751475 205.148039,244.303736 203.96189,243.490974 C202.761909,242.667792 202.412635,241.393076 201.786708,240.146146 C201.499681,239.573045 201.21957,239.02773 200.728512,238.628296 C200.085294,238.107294 199.220754,237.8329 199.103177,236.801318 C199.00289,235.939929 199.428244,235.728055 199.085886,234.821513 C198.705488,233.817717 198.650158,234.265778 199.445534,233.362709 L199.535447,233.272402 C199.570028,231.869172 199.836306,230.698656 199.379829,229.298899 C198.836898,227.628222 197.851323,226.124264 196.744712,224.773134 C195.95971,223.814492 194.081929,221.914574 192.767829,221.876367 C192.155735,221.859 192.197233,222.157708 191.771879,222.397368 C191.256613,222.685656 191.273904,222.748176 190.613396,222.782909 C190.094672,222.810696 189.012268,223.071197 188.548874,222.880163 C187.338519,222.380002 188.327552,221.845107 188.83936,221.522086 C189.292379,221.233799 189.361542,220.848258 189.714274,220.51829 C190.042799,220.212636 190.49236,220.14317 190.890048,219.979922 L190.97996,219.979922 C190.97996,218.489859 191.962078,217.378389 191.612804,215.909166 C191.270446,214.467729 189.970178,213.57508 189.53445,212.199636 C189.368458,211.678635 189.454912,211.004807 188.905065,210.660946 C187.957529,210.067004 188.158102,210.806826 188.009402,211.390348 C187.836494,212.067649 187.231316,212.446244 187.034201,213.109652 C186.868209,213.65844 187.061866,214.280168 186.8855,214.828956 C186.705676,215.395111 186.356402,215.926532 186.22845,216.541314 C186.121247,217.062315 186.193868,218.194625 185.761598,218.545432 C185.280914,218.934447 184.606573,218.396079 184.139721,218.357872 C183.655579,218.319665 182.870577,218.482912 182.427933,218.712153 C182.168571,218.847613 181.954165,219.240101 181.708635,219.333881 C181.241784,219.517968 181.096541,219.191474 180.681562,219.250521 C180.114424,219.330408 178.955941,220.146643 179.443541,218.809406 C179.588784,218.409972 180.183587,218.218938 180.425658,217.882024 C180.667729,217.548583 180.622773,217.253349 180.826805,216.930328 C181.328238,216.138406 181.622181,216.259973 182.521303,216.37112 C183.078066,216.440587 183.040027,216.840021 183.534544,216.273867 C183.84232,215.919586 183.700535,215.634772 183.776615,215.214497 C183.928774,214.380895 184.323004,213.641073 184.205426,212.744951 C184.150096,212.32815 183.89765,211.973869 183.959897,211.525808 C184.015228,211.11248 184.406,210.79988 184.502828,210.403919 C184.585824,210.056584 184.471705,209.76135 184.585824,209.403596 C184.682652,209.097942 184.98697,208.868701 185.038843,208.500527 L185.218667,208.319913 C185.094173,207.524518 185.609439,207.00699 186.138537,206.506829 C186.467063,206.197701 187.739665,205.433566 187.829577,205.072339 C188.043983,204.228317 185.498778,201.814344 187.909115,201.61289 C187.853784,200.668141 188.088939,199.928319 187.781163,199.007884 C187.546008,198.306268 187.348893,196.611278 186.598473,196.38551 C186.487812,197.167012 186.695301,197.872101 186.850918,198.639709 C187.151778,200.1263 186.719508,199.285751 185.837678,199.883166 C185.405408,200.1784 184.737983,201.209982 184.402542,201.69625 C183.901108,202.422179 183.638288,203.269674 183.302847,204.068543 C182.953573,204.902145 182.822163,205.607233 182.064826,205.964988 C181.297114,206.329688 180.539778,206.489462 179.789357,206.96531 C178.821072,207.580092 177.551928,208.174033 176.701221,208.893015 C176.075294,209.424436 176.040712,210.334452 175.566945,210.990913 C175.321415,211.331301 175.041304,211.553595 174.833815,211.932189 C174.619409,212.321203 174.643616,212.724111 174.270135,213.050605 C173.917403,213.359733 173.488591,213.349313 173.163524,213.738327 C172.893787,214.057874 172.793501,214.651816 172.561804,215.01999 C172.973325,215.12419 173.50934,214.919263 173.965817,214.860216 C174.059187,215.106824 173.9589,216.593414 173.727204,216.777501 C173.218854,217.176935 172.565262,215.995999 171.967001,215.923059 C171.572771,217.55553 169.78836,214.662236 169.273095,214.200281 C169.266178,212.904725 168.26677,213.46046 167.588971,213.193012 C167.806835,212.751898 168.180316,212.237843 168.69904,212.220476 C168.667917,212.849151 169.739946,212.894305 170.085762,213.456986 C170.314001,212.925565 169.363007,212.321203 169.200473,211.737682 C169.058689,211.237521 169.324967,210.633159 169.183182,210.136471 C169.069063,209.73009 168.754371,209.62589 168.633335,209.226456 C168.557256,208.969428 168.654084,208.587361 168.619503,208.319913 C168.536507,207.701659 168.273687,206.98615 167.775712,206.590189 C167.225864,206.149075 166.347492,206.235908 165.821852,205.794794 C165.095638,205.180012 165.635111,204.752791 165.576322,203.950449 C165.455287,202.217252 164.106605,201.762244 162.78213,201.453116 L162.315278,201.397543 C161.782722,200.789708 161.512985,200.042939 161.129129,199.403845 C160.8836,198.997464 160.807521,199.011357 160.703776,198.493829 C160.634613,198.146495 160.707234,197.73664 160.665736,197.385833 C161.398866,196.993345 161.692809,198.427835 161.938339,197.490033 C162.062833,197.010712 161.592523,196.118063 161.274372,195.774202 C160.444414,194.885027 160.375251,195.732522 159.472671,196.041649 C158.469805,196.38551 158.341853,195.593588 158.991987,194.812086 C159.590249,194.093105 160.568908,194.020164 159.19256,193.318549 C158.839828,193.137936 158.414474,193.148356 158.054826,192.988582 C157.743592,192.849648 157.35282,192.38422 157.003545,192.359907 C156.453698,192.325174 155.637573,192.985109 154.939024,193.009422 C154.133273,193.040682 153.472765,192.783655 152.926376,192.151506 C151.916593,192.23834 151.560403,191.286644 150.740819,190.911523 C150.007689,190.571136 149.585794,190.75175 148.939118,191.081717 C146.940302,192.095933 146.570279,191.345691 145.02794,189.938988 C144.021615,189.022025 141.974385,187.438181 140.591121,187.188101 C139.567506,187.004014 139.315061,187.490281 138.595764,187.966129 C138.073582,188.30999 137.402699,188.35167 136.794063,188.435031 L136.510494,188.435031 C134.100157,188.435031 131.74515,188.018229 129.32098,188.150216 C127.190754,188.264837 124.835748,189.126226 122.919928,190.050135 C121.63695,190.668389 120.464634,191.477678 119.143618,192.04036 C117.964385,192.543994 116.695241,192.860068 115.516008,193.41233 C113.275121,194.461279 110.864784,195.399081 108.354161,195.392135 C107.157637,195.388661 106.012987,195.253201 104.844129,195.201101 C103.101217,195.124687 102.66203,196.031229 101.496631,197.201746 L101.022863,197.295526 C99.3491138,197.4553 97.3502977,199.383004 95.922078,200.25134 C94.251787,201.262082 92.1146446,201.022422 90.8904562,202.727833 C90.3267762,203.512808 89.8702992,204.669431 89.6247699,205.59334 C89.5279414,205.958041 89.5486904,206.482515 89.3757824,206.80901 C89.0610899,207.402951 88.7187322,207.211917 88.238048,207.653032 C87.4357551,208.38938 88.238048,209.330656 87.4599622,210.139945 C86.782163,210.845033 86.0213679,210.438652 85.2501984,211.00828 C84.873259,211.286147 84.8213866,212.019023 84.1366711,211.772415 C83.5902819,211.574435 83.7113175,210.664419 82.9712714,210.539379 C82.1032734,210.393499 81.0658257,211.240994 80.1874532,211.313934 C80.2151185,212.449717 79.0843004,211.452868 78.555202,211.487601 C77.7667417,211.543175 77.8635702,212.310783 77.1338985,212.352463 C75.8993357,212.42193 75.9235428,209.483483 74.363913,211.588328 L74.1667979,211.834935 C72.6417496,211.834935 71.1789483,211.984289 69.6953979,211.838409 C67.7173308,211.643902 66.6383851,212.24479 64.9265963,212.998505 C63.5225836,213.61676 62.0286588,213.189539 60.6696022,213.922414 C58.9370644,214.856743 58.8886501,216.037679 58.9958531,217.767404 C58.7537819,217.715303 58.3906752,217.854237 58.1520622,217.79519 C58.2385162,220.004236 53.1688547,217.527743 54.0852669,220.514817 C52.9198672,221.032345 51.9446663,220.994138 51.5020219,222.279275 C50.9936725,223.751972 51.4432332,224.130566 49.658823,224.634201 C47.4801827,225.252456 45.3153749,225.179515 43.0502806,225.179515 C40.6191946,225.179515 38.3541003,224.821761 35.981803,224.453587 C35.1414703,224.3216 35.2970875,224.651567 34.4878782,224.022893 C33.9518635,223.606091 33.7167087,222.807223 33.1634032,222.386948 C32.4579387,221.852054 30.901767,221.021925 29.9853548,221.119179 L29.8401121,221.265059 C27.6165157,221.549873 27.4090261,220.410617 27.0078797,218.708679 C26.7035617,217.423543 25.9808064,215.804965 26.9387165,214.596242 C28.4118923,215.728552 29.0032376,215.721605 29.8746937,214.262802 C30.5870745,213.071445 31.3202043,211.852302 31.1369219,210.414339 C30.9778465,209.167409 29.9784385,208.045519 29.9784385,206.774276 C29.9818967,205.388413 31.2026269,204.683324 30.1271393,203.425975 L29.9818967,203.280094 C29.9818967,201.286396 30.3104218,199.174604 29.1553966,197.48656 C28.4775974,196.496657 27.4989383,195.635268 26.7796412,194.693993 C25.9600574,193.62073 25.3202979,192.557887 24.5525866,191.460311 C23.2246534,189.574287 22.391237,187.413868 21.609693,185.229136 C20.7693603,182.881157 21.6857725,180.432451 20.0223979,178.334552 L19.590128,178.480432 C19.721538,176.966055 18.1238685,175.809432 17.6086027,174.531243 C16.7993935,172.523651 15.661659,171.627529 14.2472719,170.127045 C12.926255,168.727288 13.4138555,167.476885 12.8190521,165.934721 C12.3591169,164.750311 11.2040917,162.923334 10.3499264,161.943851 L10.3499264,162.235612 C9.60642213,158.713643 2.77309938,156.872772 5.26989038,153.277863 C5.2940975,154.302499 7.44161442,157.970348 8.62430489,157.470187 C9.85195144,156.952659 9.06694928,153.663404 9.03236769,152.576248 C9.28135516,153.298703 9.82774433,154.274712 10.3879661,154.830447 C11.0553909,155.493855 10.8479013,155.92455 11.4150394,154.628993 C11.7608554,153.833598 11.5706566,151.534245 11.1971754,150.815263 C10.8513595,150.151855 9.5752987,149.700321 9.04274217,149.155006 C8.31998688,148.415184 8.14362075,147.602422 7.71135084,146.720193 C7.00588635,145.285703 5.38055148,144.219387 5.00361212,142.659856 L5.14885481,142.513976 C4.73733385,140.732152 3.264158,139.509535 3.01517053,137.58183 C2.70047803,135.122704 4.02149488,134.282156 4.7926644,132.225937 C5.43934019,130.506633 5.06240083,128.943629 4.42609952,127.342418 C4.06990911,126.446296 2.93909102,125.803728 2.60364957,124.973599 C2.19212862,123.948963 3.12928978,123.038948 3.27107432,122.062938 C3.29528143,120.156074 3.97999697,117.974815 5.56037576,116.731358 C5.73674189,117.745574 5.22493431,118.700743 5.43588203,119.711486 C5.66066238,120.781275 6.68427753,121.291857 6.03068543,122.479739 C7.06121689,122.170612 7.48311233,122.149772 8.00183622,121.229336 C8.44793877,120.437414 8.44102245,119.315525 8.8698342,118.447189 C9.95569622,116.234671 12.251914,115.147515 14.2472719,113.799858 L13.967161,114.352119 Z" id="Path" fill="#FFFFFF" fill-rule="nonzero"></path>
                <path d="M230.66196,14.0428821 C230.95896,13.9378821 231.38196,13.8208821 231.63696,13.6048821 C231.55296,13.4248821 230.86296,12.8818821 230.63796,12.9658821 C230.32596,13.0828821 230.22996,13.9048821 230.61396,13.9948821 L230.66196,14.0428821 Z" id="Path" fill="#FFFFFF" fill-rule="nonzero"></path>
                <path d="M231.081736,10.9001668 C231.633736,10.6421668 231.519736,9.98516676 230.886736,10.1171668 C230.178736,10.2611668 230.784736,10.8761668 231.279736,10.8041668 L231.081736,10.9001668 Z" id="Path" fill="#FFFFFF" fill-rule="nonzero"></path>
                <path d="M230.811871,8.93631057 C231.108871,8.77131057 231.693871,8.30931057 231.153871,8.10531057 C230.622871,7.90131057 230.433871,8.49831057 230.859871,8.78931057 L230.811871,8.93631057 Z" id="Path" fill="#FFFFFF" fill-rule="nonzero"></path>
                <path d="M230.772718,13.3929064 C230.727718,13.7679064 231.045718,14.0169064 231.234718,13.6119064 C231.405718,13.2429064 230.997718,13.0389064 230.724718,13.2939064 L230.772718,13.3929064 Z" id="Path" fill="#FFFFFF" fill-rule="nonzero"></path>
                <path d="M234.5185,2.74463175 C234.9535,2.74163175 235.2145,2.62163175 235.6255,2.54363175 C235.5265,2.17763175 234.4525,2.15963175 234.3745,2.49263175 C234.4555,2.49263175 234.4945,2.52863175 234.5665,2.54963175 L234.5185,2.74463175 Z" id="Path" fill="#FFFFFF" fill-rule="nonzero"></path>
                <path d="M230.853,1.71529527 C231.111,1.71529527 231.393,1.74529527 231.63,1.67029527 C231.63,1.16329527 230.394,1.19029527 230.37,1.51429527 C230.568,1.51729527 230.769,1.49929527 230.949,1.56829527 L230.853,1.71529527 Z" id="Path" fill="#FFFFFF" fill-rule="nonzero"></path>
                <path d="M203.560683,63.547168 C204.036744,63.547168 204.817312,63.676168 204.945977,63.316168 C206.292672,63.292168 205.752279,62.980168 206.425626,62.320168 C207.090396,61.669168 207.339148,62.380168 208.419935,62.164168 C209.063261,60.874168 205.640769,61.396168 204.8988,61.570168 C203.655037,61.864168 202.051012,62.644168 202.617139,63.682168 C203.071755,63.367168 203.346241,63.331168 203.908079,63.550168 L203.560683,63.547168 L203.560683,63.547168 Z" id="Path" fill="#FFFFFF" fill-rule="nonzero"></path>
                <path d="M205.589755,67.641792 C205.790755,67.515792 205.967755,67.320792 206.066755,67.107792 C206.723755,67.326792 206.333755,68.223792 205.769755,67.761792 L205.589755,67.641792 Z" id="Path" fill="#FFFFFF" fill-rule="nonzero"></path>
                <path d="M185.525363,55.9628493 C185.621363,55.1558493 185.090363,54.4478493 184.463363,55.2428493 C184.784363,55.5578493 184.919363,56.2358493 185.465363,56.0828493 L185.525363,55.9628493 Z" id="Path" fill="#FFFFFF" fill-rule="nonzero"></path>
                <path d="M181.915262,53.0454904 C182.179262,52.8114904 182.779262,52.0764904 182.152262,51.9624904 C181.561262,51.8544904 181.264262,52.8774904 182.035262,52.9254904 L181.915262,53.0454904 Z" id="Path" fill="#FFFFFF" fill-rule="nonzero"></path>
                <path d="M178.660494,42.2962993 C179.499569,42.0450932 179.719971,42.3551758 180.497178,42.5514306 C181.111984,42.7045093 181.71519,42.6613332 182.217861,42.6652583 C182.573598,42.6691834 182.755333,42.6770336 183.084003,42.7633857 C183.470673,42.8693633 183.636941,43.1598204 184.070012,42.8850637 C184.468283,42.6338576 184.762152,41.4131528 184.14348,41.2757744 C184.039079,41.50343 183.880544,41.7232353 183.845743,41.9783666 C183.760676,41.9234152 183.420406,41.5662315 183.343072,41.5583813 C183.149737,41.5348307 182.983469,41.750711 182.836534,41.7350106 C182.500131,41.6918346 181.923992,41.7350106 182.016793,41.2286732 C182.11346,40.7066355 183.010535,41.0441937 183.080136,40.5457066 C183.13427,40.1728225 182.12506,40.2081483 182.608398,39.4623801 C182.906134,39.0031439 184.773752,39.2268743 184.151213,38.0728962 C183.667875,37.1779743 182.979602,38.7480126 182.299062,38.3829787 C182.299062,37.8570159 182.016793,37.6921619 182.519464,37.1897496 C182.11346,36.9306933 181.34012,36.9699442 180.922516,37.1112477 C182.194661,39.0345446 179.708371,37.6372105 179.201833,38.5360575 C179.750905,39.0188443 179.306234,39.9765677 179.279167,40.6163583 C179.259833,41.09522 179.491835,40.9421412 179.163166,41.3935273 C178.904096,41.750711 178.467159,41.6054824 178.501959,42.1432206 L178.660494,42.2962993 Z" id="Path" fill="#FFFFFF" fill-rule="nonzero"></path>
                <path d="M179.925718,38.0895332 C180.177718,37.8015332 180.345718,38.0055332 180.405718,37.5585332 C180.444718,37.2705332 180.372718,37.0425332 180.069718,36.9525332 C179.202718,36.6945332 179.706718,37.6965332 179.985718,37.9695332 L179.925718,38.0895332 Z" id="Path" fill="#FFFFFF" fill-rule="nonzero"></path>
                <path d="M130.631464,19.710964 C130.678232,19.3482263 130.523541,19.3317382 130.404824,19.1140956 C130.275316,18.8799649 130.206964,18.870072 130.178184,18.5205247 C130.149404,18.1676798 130.04148,18.0654538 129.951544,17.788454 C129.8724,17.5411328 129.670942,17.3927401 129.922764,17.1520142 C129.570213,16.8684192 129.192479,16.1792175 129.897582,16.0176343 C130.512748,15.8758369 130.214159,16.6309909 130.789753,16.7892764 C131.246631,16.9145858 131.645949,16.4265387 131.570402,17.0596809 C131.548818,17.2509426 131.081147,17.4059306 131.372542,17.6499542 C131.635157,17.8708944 132.059658,17.4422044 132.26831,17.333383 C132.426599,17.9764181 132.430196,17.8445135 133.023778,17.5609185 C133.254015,17.4520972 133.54541,17.5015614 133.75766,17.4224187 C134.002288,17.3300854 134.153381,17.119038 134.433983,17.0431929 C134.75056,16.9574548 134.80812,17.1553118 135.009578,17.161907 C135.563587,17.1816927 135.167866,17.2113713 135.595964,16.8750144 C135.700291,16.7925741 136.167961,16.4957886 136.308262,16.5155743 C136.563682,16.5485505 136.610449,16.8783121 136.855076,16.9970262 C136.790322,16.4628125 137.455853,16.3408007 137.959498,16.2286817 C138.085409,16.3935625 138.096201,16.5914195 138.071019,16.7958717 C138.632223,16.7035384 138.689783,17.0662762 139.024347,17.3498711 C139.448848,17.7093112 139.578356,17.5378352 139.456043,18.072049 C139.409276,18.2765012 139.265377,18.3688344 139.268975,18.6194532 C139.272572,18.827203 139.477627,18.9624053 139.420068,19.1866431 C139.272572,19.753833 138.596249,19.5691666 138.272477,19.7604283 C137.891146,19.9879638 137.567374,20.4562252 137.157263,20.7101416 C136.703983,20.990439 136.373016,21.3399862 135.908944,21.5939027 C135.48804,21.8247358 135.29018,22.0852474 134.862082,21.9731285 C134.448373,21.8643072 133.991495,21.4685933 133.584982,21.3136053 C133.023778,21.0992603 132.602875,20.9145938 132.163984,20.5419632 C131.789848,20.2220945 131.34736,20.0638089 130.973224,19.7637259 L130.631464,19.710964 Z" id="Path" fill="#FFFFFF" fill-rule="nonzero"></path>
                <path d="M129.089596,19.6441642 C129.300566,19.9403569 131.159492,20.4856208 130.251922,20.9130808 C129.81804,21.1183962 128.599986,20.8053743 128.13426,20.7447894 C127.310282,20.637083 126.522129,20.8996175 125.702132,20.9736656 C125.419511,20.9972264 124.587573,21.0679088 124.5,20.8020085 C124.507961,20.8222035 125.041357,20.0144051 125.13291,19.9706493 C125.519026,19.7855289 126.064364,20.4284017 126.203684,19.7013832 C126.243489,19.5061653 125.96883,19.3648006 126.008636,19.1695826 C126.044461,18.9844622 126.354945,18.7690493 126.490285,18.6344162 C126.227567,18.4930515 125.877277,18.6276845 125.76184,18.3752476 C125.62252,18.075689 126.024558,17.900666 126.235528,17.7626671 C126.482323,17.6011075 126.884361,17.2005741 127.115234,17.0962335 C127.592902,16.8808206 127.314262,17.0592094 127.620766,17.3150122 C127.791931,17.4563769 128.178046,17.6650582 128.281541,17.8367153 C128.392997,18.0252016 128.20591,18.3752476 128.273579,18.580563 C128.377074,18.8935848 128.83484,19.4859703 129.089596,19.7485048 C129.089596,19.7485048 129.089596,19.6441642 129.089596,19.6441642 Z" id="Path" fill="#FFFFFF" fill-rule="nonzero"></path>
                <path d="M251.185151,284.451361 C251.099564,284.841776 251.099564,285.211276 251.017401,285.615635 C250.990013,285.751583 251.147493,286.107139 251.113258,286.180342 C250.99686,286.420866 250.722983,286.284918 250.589468,286.50104 C250.29505,286.978602 250.000632,288.097559 250.000632,288.697125 C250.000632,288.874904 250.610009,291.569465 249.504229,290.209984 C249.172153,289.802139 249.565852,289.484927 248.966745,289.195602 C248.720256,289.077083 247.724027,288.878389 247.463844,288.881875 C247.470691,289.321092 247.686369,289.82654 247.37141,290.164668 C247.10438,289.997347 246.957171,289.680135 246.864737,289.37338 C245.861662,289.526757 246.114998,290.192555 246.351218,290.820007 C246.474462,291.144191 247.022217,292.440927 246.104728,292.14463 C246.111575,291.541578 245.967789,290.966413 245.502198,291.314998 C245.20778,291.538092 245.430305,292.792998 244.588133,292.151602 C244.324526,292.960319 243.4892,294.567295 242.712074,294.891479 C242.051345,295.170347 241.722692,294.860106 241.216019,294.542894 C240.740157,294.243111 240.572408,294.138536 240.004112,294.026989 C239.137975,293.859668 237.813094,293.964243 237.457054,293.270559 C236.566953,291.524149 238.586798,292.69888 238.963379,292.32938 C238.511481,291.660097 237.374891,291.830904 236.950381,291.241795 C236.864794,291.471861 236.625152,291.565979 236.529295,291.698441 C236.056856,291.314998 236.426591,290.889724 236.275958,290.401705 C236.142443,289.962488 235.851449,289.777738 235.55703,289.464012 C235.426939,289.324578 235.464597,289.084055 235.324235,288.934163 C235.194143,288.794729 234.886031,288.944621 234.793598,288.812158 C234.581343,288.512375 234.653236,288.024356 234.577919,287.647885 L234.492333,287.735031 C234.540261,287.065748 234.060976,286.291889 233.752864,285.748097 C233.342048,285.026526 233.369436,284.723257 233.287273,283.848309 C233.027089,281.087517 234.293772,284.733715 235.337929,283.510182 C234.328006,282.917587 234.560802,282.520201 234.245843,281.634795 C233.283849,282.774668 233.609079,280.822592 233.56115,280.400804 C233.46187,279.497969 232.842222,278.546333 232.030861,278.159403 L231.945274,278.33021 C232.006897,277.789903 231.92131,277.012559 231.736443,276.521054 C231.578963,276.095781 230.404715,275.00471 231.106525,274.7363 C231.05175,274.272682 230.757332,273.749804 230.692286,273.24087 C230.630663,272.759823 230.70598,272.146314 230.678592,271.61995 C230.664898,271.337597 230.442373,271.264394 230.514266,270.912323 C230.572465,270.626483 230.918235,270.657856 231.017515,270.378988 C231.181841,269.91537 230.993551,269.162427 231.096255,268.667436 L231.181841,268.409483 C231.784371,269.144998 231.928157,268.698809 232.458794,268.371139 C232.804564,268.158502 233.63989,267.590309 233.55088,268.500115 C233.496104,269.054365 232.681319,268.817328 232.94835,269.430837 C233.033936,269.626045 234.187644,269.953715 234.386205,269.953715 C234.375935,269.382035 234.886031,269.301861 235.231801,269.521469 C235.385857,269.619073 235.129097,270.107092 235.252342,270.225611 C235.454327,270.417332 235.717933,270.197724 235.923341,270.305785 C236.180101,270.441733 236.289652,270.417332 236.553259,270.602082 C236.707315,270.710144 236.66281,271.086615 236.847677,271.239993 C237.162636,271.497946 237.772013,271.529318 238.138324,271.853502 C239.524827,273.080521 241.811702,274.168106 243.715149,273.498823 L243.800736,273.498823 C244.59498,273.606884 245.344719,272.711021 246.16635,272.637818 C246.820232,272.578559 247.552854,272.372894 248.217006,272.477469 C248.65521,272.547186 248.528542,272.899257 249.107107,272.672677 C249.596663,272.480955 249.654862,272.052196 250.264239,272.027795 C250.692172,272.010366 250.969473,272.41821 251.452181,272.212545 C251.886961,272.027795 251.996512,271.368969 252.554537,271.337597 C253.22896,271.295766 254.389515,272.749366 254.485372,273.373333 C254.550418,273.798606 254.382668,274.025186 254.293658,274.384229 C254.221765,274.67704 254.036898,274.795559 254.057439,275.1302 C254.067709,275.31495 254.321045,275.635649 254.321045,275.656564 C254.314198,276.42345 253.667163,276.921927 253.739056,277.908422 C253.776714,278.41387 253.947888,278.501017 253.728786,279.02738 C253.49599,279.592087 253.030399,279.721064 253.136526,280.467035 C253.198149,280.892309 253.834913,282.80604 253.472026,283.172054 C252.985894,283.663559 252.670935,282.767696 252.28066,282.823469 C251.811645,282.889701 251.472722,283.785564 251.517227,284.20038 L251.185151,284.451361 Z" id="Path" fill="#FFFFFF" fill-rule="nonzero"></path>
                <path d="M244.266504,294.238004 C244.395504,293.893004 244.656504,293.833004 244.713504,293.476004 C244.728504,293.380004 244.569504,292.813004 244.488504,292.780004 C244.092504,292.627004 243.396504,293.494004 243.285504,293.677004 C243.543504,294.250004 244.071504,293.683004 244.332504,294.238004 L244.266504,294.238004 Z" id="Path" fill="#FFFFFF" fill-rule="nonzero"></path>
                <path d="M248.787843,293.475215 C248.880843,293.235215 248.982843,293.031215 249.171843,292.905215 C249.240843,293.109215 249.348843,293.304215 249.486843,293.472215 C250.002843,293.235215 250.011843,292.656215 249.615843,292.332215 C249.408843,292.161215 249.201843,292.269215 249.009843,292.143215 C248.829843,292.026215 248.790843,291.684215 248.631843,291.606215 C247.998843,291.282215 248.064843,292.008215 248.178843,292.329215 C248.196843,292.383215 248.475843,292.341215 248.502843,292.434215 C248.535843,292.551215 248.385843,292.707215 248.403843,292.761215 C248.481843,292.992215 248.190843,293.247215 248.661843,293.286215 L248.787843,293.475215 Z" id="Path" fill="#FFFFFF" fill-rule="nonzero"></path>
                <path d="M3.25881352,155.903315 C3.24981352,155.444063 2.81181352,154.972724 2.65881352,154.541671 C2.48181352,154.046162 2.34981352,153.518424 2.15781352,153.026943 C1.93881352,152.454891 1.62981352,149.864545 1.05981352,150.005544 C-0.164186475,150.307684 2.49381352,155.536719 3.05181352,156 L3.25881352,155.903315 Z" id="Path" fill="#FFFFFF" fill-rule="nonzero"></path>
                <path d="M6.15560071,155.459287 C6.15560071,154.74335 6.39560071,153.345933 6.23060071,152.867366 C6.14660071,152.622339 5.80760071,152.457712 5.66960071,152.243314 C5.54960071,152.055716 5.56160071,151.768575 5.43560071,151.577148 C5.33060071,151.412521 5.08760071,151.477606 4.97960071,151.332122 C4.82360071,151.113895 4.82360071,150.796126 4.64060071,150.574071 C4.59560071,150.68127 4.46360071,150.857383 4.43360071,150.949268 C4.31960071,150.164417 4.00160071,149.406366 3.75260071,150.688927 C3.71360071,150.884183 3.68660071,151.527377 3.74660071,151.745604 C3.88760071,152.258628 4.04660071,152.074858 4.19960071,152.400284 C4.47860071,152.997536 4.63160071,153.686673 4.91660071,154.322211 C5.17160071,154.892663 5.21060071,156.175224 5.91860071,155.979969 C5.94860071,155.84597 6.00560071,155.689 6.01460071,155.551172 L6.15560071,155.459287 Z" id="Path" fill="#FFFFFF" fill-rule="nonzero"></path>
                <path d="M304.968003,150 C304.973407,148.420411 305.840732,147.083271 306.532431,145.90409 C306.832347,145.393479 307.448392,144.677154 307.497027,143.997563 C307.52945,143.520013 307.288977,143.428177 307.151177,143.068178 C307.018782,142.719199 307.040397,142.311444 307.053907,141.925731 C307.067417,141.53267 307.22413,141.007365 306.802626,141 C306.61349,140.996345 306.070398,141.540017 305.978532,141.764099 C306.291958,142.417975 306.843155,142.94328 306.402738,143.769809 C306.070398,144.390624 305.343574,144.710215 304.927474,145.202459 C305.049061,145.323683 305.167947,145.448581 305.286833,145.580825 C305.140928,145.863682 305.2409,146.117151 305.162543,146.411028 C305.035552,146.892251 304.657279,147.03919 304.565413,147.542454 C304.427613,148.299187 304.495162,148.927349 304.886944,149.51143 L304.968003,150 Z" id="Path" fill="#FFFFFF" fill-rule="nonzero"></path>
                <path d="M185.177907,225.555638 C185.062791,224.943835 185.369767,225.014675 185.77093,224.702334 C186.172093,224.389992 186.227907,223.95207 186.5,223.591429 C186.224419,223.510928 185.296512,223.694469 185.104651,223.514148 C184.72093,223.150286 185.369767,222.802525 185.627907,222.693044 C185.146512,222.664064 185.04186,222.371043 185.240698,222.029721 C184.762791,221.913801 184.389535,222.168182 183.95,222.258342 C183.562791,222.335623 183.175581,222.274442 182.788372,222.325963 C182.111628,222.416123 181.476744,222.628644 180.817442,222.818625 C180.05,223.037586 179.32093,223.272647 178.546512,223.417548 C177.803488,223.556008 177.740698,224.077651 177.5,224.737754 C178.211628,225.046875 178.780233,225.108056 178.745349,226 C179.47093,225.694099 179.652326,225.516998 180.534884,225.558858 C180.988372,225.581398 181.476744,225.665118 181.919767,225.610378 C182.572093,225.529878 182.718605,225.304477 183.367442,225.562078 C184.037209,225.826119 184.22907,225.97746 184.909302,225.558858 L185.177907,225.555638 L185.177907,225.555638 Z" id="Path" fill="#FFFFFF" fill-rule="nonzero"></path>
                <path d="M187.140401,224.490122 C187.326401,224.082122 187.551401,223.824122 188.055401,223.974122 C188.352401,224.064122 188.925401,224.355122 188.853401,224.715122 C188.688401,225.537122 186.645401,224.724122 187.311401,224.316122 L187.140401,224.490122 Z" id="Path" fill="#FFFFFF" fill-rule="nonzero"></path>
                <path d="M226.642431,262.939394 C227.602431,262.837321 227.887431,261.794258 227.845431,261.047847 C227.800431,260.253589 228.010431,259.130781 226.936431,259 C226.933431,259.086124 226.984431,259.452951 226.930431,259.539075 C226.840431,259.692185 226.573431,259.791069 226.522431,259.899522 C226.390431,260.177033 226.330431,260.719298 226.225431,261.044657 C226.051431,261.586922 226.216431,261.494418 226.360431,262.017544 C226.450431,262.349282 226.267431,262.760766 226.471431,263 L226.642431,262.939394 Z" id="Path" fill="#FFFFFF" fill-rule="nonzero"></path>
                <path d="M253.899289,267.707606 C254.196289,267.674606 254.433289,267.872606 254.700289,267.866606 C254.958289,267.860606 255.174289,267.599606 255.411289,267.599606 C255.819289,267.596606 256.662289,268.598606 256.113289,268.910606 C255.660289,269.168606 255.813289,268.559606 255.579289,268.484606 C255.177289,268.358606 255.291289,268.655606 255.138289,268.904606 C254.784289,269.489606 254.304289,269.675606 254.358289,268.799606 C254.499289,268.766606 254.580289,268.658606 254.679289,268.619606 C254.334289,268.352606 253.578289,268.508606 253.725289,267.821606 L253.899289,267.707606 Z" id="Path" fill="#FFFFFF" fill-rule="nonzero"></path>
                <path d="M253.506145,265.928186 C253.830145,265.925053 254.265145,266.147462 254.424145,265.824812 C254.592145,265.489632 254.256145,265.145054 253.953145,265.192042 C253.971145,264.863127 254.358145,264.766019 254.364145,264.380719 C254.373145,263.838792 253.944145,263.848189 253.650145,263.57566 C253.254145,263.206022 253.053145,262.021928 252.474145,262 C252.342145,262.353975 252.144145,262.457349 251.892145,262.698553 C251.625145,262.95542 251.337145,262.801926 251.706145,263.127709 C251.937145,263.331323 252.225145,263.115179 252.366145,263.513009 C252.459145,263.769876 252.267145,264.133249 252.141145,264.321201 C252.414145,264.5812 252.531145,265.047946 252.654145,265.392524 C252.840145,265.915655 252.741145,265.881198 253.335145,265.987703 L253.506145,265.928186 Z" id="Path" fill="#FFFFFF" fill-rule="nonzero"></path>
                <circle id="Oval" fill="#A053FF" opacity="0.802189709" cx="181" cy="100.5" r="22.3164448"></circle>
                <ellipse id="Oval" fill="#FF462D" opacity="0.802189709" cx="136" cy="106" rx="14.3196322" ry="13.8258518"></ellipse>
                <ellipse id="Oval" fill="#EB872E" opacity="0.802189709" cx="186" cy="161.598374" rx="13.2221297" ry="13.3853659"></ellipse>
                <ellipse id="Oval" fill="#63BFFF" opacity="0.802189709" cx="158.584656" cy="136.417989" rx="15.9044205" ry="15.4074074"></ellipse>
                <ellipse id="Oval" fill="#4CDD84" opacity="0.802189709" cx="120.5" cy="156.5" rx="18.9004329" ry="18.488611"></ellipse>
            </g>
        </g>
    </g>
</svg>