<?xml version="1.0" encoding="utf-8"?>
<svg width="126px" height="40px" viewbox="0 0 126 40" version="1.1" xmlns:xlink="http://www.w3.org/1999/xlink" xmlns="http://www.w3.org/2000/svg">
  <path d="M120 0L120 30L116.482 30L116.482 0L120 0ZM48.854 9.537C45.8655 9.3467 43.2606 11.5512 42.954 14.53L42.782 14.53L42.782 10L39.26 10L39.26 30L42.779 30L42.779 17.544C42.779 14.176 44.572 12.633 47.579 12.633C51.021 12.633 52.56 14.339 52.56 17.723L52.56 30L56.078 30L56.078 17.264C56.074 12.489 53.374 9.537 48.854 9.537ZM27.323 29.462L27.208 29.462L21.1 10L17.454 10L23.919 30L27.156 30L23.856 40L27.37 40L37.054 10L33.409 10L27.323 29.462ZM104.545 29.462L104.43 29.462L98.322 10L94.675 10L101.14 30L104.377 30L101.077 40L104.588 40L114.272 10L110.626 10L104.545 29.462ZM7.325 20L16.009 10L11.73 10L3.63 19.652L3.519 19.652L3.519 0L0 0L0 30L3.519 30L3.519 20.185L6.862 20.185L13.624 30L17.7 30L10.7 20L7.325 20ZM86.346 14.532L86.175 14.532L86.175 10L82.656 10L82.656 30L86.175 30L86.175 17.508C86.175 14.14 88.085 12.908 91.359 12.908C92.0926 12.9013 92.8245 12.9798 93.54 13.142L93.54 9.742C92.999 9.58036 92.4352 9.50874 91.871 9.53C88.9895 9.45551 86.5575 11.6573 86.346 14.532L86.346 14.532ZM74.617 0L78.135 0L78.135 30L74.617 30L74.617 25.47L74.447 25.47C74.11 28.261 71.969 30.463 67.911 30.463C62.96 30.463 59.442 26.535 59.442 20C59.442 13.465 62.959 9.537 67.911 9.537C71.969 9.537 74.111 11.737 74.447 14.53L74.617 14.53L74.617 0ZM74.617 17.358C74.617 13.99 72.075 12.632 68.922 12.632C65.598 12.632 63.112 14.7 63.112 20C63.112 25.3 65.598 27.368 68.922 27.368C72.075 27.368 74.617 26.01 74.617 22.642L74.617 17.358L74.617 17.358ZM121.573 27.887L121.573 28.124L122.212 28.124L122.212 30L122.512 30L122.512 28.125L123.151 28.125L123.151 27.888L121.573 27.887ZM125.093 27.887L124.568 29.971L124.562 29.971L124.062 27.887L123.483 27.887L123.422 30L123.705 30L123.768 27.916L123.774 27.916L124.293 30L124.821 30L125.372 27.916L125.378 27.916L125.44 30L125.74 30L125.671 27.888L125.094 27.888L125.093 27.887Z" id="Shape" fill="#FF462D" stroke="none" />
</svg>