<?xml version="1.0" encoding="UTF-8"?>
<svg width="126px" height="40px" viewBox="0 0 126 40" version="1.1" xmlns="http://www.w3.org/2000/svg" xmlns:xlink="http://www.w3.org/1999/xlink">
    <!-- Generator: Sketch 58 (84663) - https://sketch.com -->
    <title>Shape</title>
    <desc>Created with Sketch.</desc>
    <g id="Desktop" stroke="none" stroke-width="1" fill="none" fill-rule="evenodd">
        <g id="Landing" transform="translate(-1066.000000, -158.000000)" fill="#FFFFFF" fill-rule="nonzero">
            <g id="Paid-for" transform="translate(1063.000000, 130.000000)">
                <path d="M123,28 L123,58 L119.482,58 L119.482,28 L123,28 Z M51.854,37.537 C48.8655503,37.3466996 46.2605571,39.5512304 45.954,42.53 L45.782,42.53 L45.782,38 L42.26,38 L42.26,58 L45.779,58 L45.779,45.544 C45.779,42.176 47.572,40.633 50.579,40.633 C54.021,40.633 55.56,42.339 55.56,45.723 L55.56,58 L59.078,58 L59.078,45.264 C59.074,40.489 56.374,37.537 51.854,37.537 Z M30.323,57.462 L30.208,57.462 L24.1,38 L20.454,38 L26.919,58 L30.156,58 L26.856,68 L30.37,68 L40.054,38 L36.409,38 L30.323,57.462 Z M107.545,57.462 L107.43,57.462 L101.322,38 L97.675,38 L104.14,58 L107.377,58 L104.077,68 L107.588,68 L117.272,38 L113.626,38 L107.545,57.462 Z M10.325,48 L19.009,38 L14.73,38 L6.63,47.652 L6.519,47.652 L6.519,28 L3,28 L3,58 L6.519,58 L6.519,48.185 L9.862,48.185 L16.624,58 L20.7,58 L13.7,48 L10.325,48 Z M89.346,42.532 L89.175,42.532 L89.175,38 L85.656,38 L85.656,58 L89.175,58 L89.175,45.508 C89.175,42.14 91.085,40.908 94.359,40.908 C95.0926093,40.9012647 95.8245168,40.9797912 96.54,41.142 L96.54,37.742 C95.999041,37.5803604 95.4351914,37.508739 94.871,37.53 C91.9894958,37.4555074 89.5574858,39.6573019 89.346,42.532 L89.346,42.532 Z M77.617,28 L81.135,28 L81.135,58 L77.617,58 L77.617,53.47 L77.447,53.47 C77.11,56.261 74.969,58.463 70.911,58.463 C65.96,58.463 62.442,54.535 62.442,48 C62.442,41.465 65.959,37.537 70.911,37.537 C74.969,37.537 77.111,39.737 77.447,42.53 L77.617,42.53 L77.617,28 Z M77.617,45.358 C77.617,41.99 75.075,40.632 71.922,40.632 C68.598,40.632 66.112,42.7 66.112,48 C66.112,53.3 68.598,55.368 71.922,55.368 C75.075,55.368 77.617,54.01 77.617,50.642 L77.617,45.358 L77.617,45.358 Z M124.573,55.887 L124.573,56.124 L125.212,56.124 L125.212,58 L125.512,58 L125.512,56.125 L126.151,56.125 L126.151,55.888 L124.573,55.887 Z M128.093,55.887 L127.568,57.971 L127.562,57.971 L127.062,55.887 L126.483,55.887 L126.422,58 L126.705,58 L126.768,55.916 L126.774,55.916 L127.293,58 L127.821,58 L128.372,55.916 L128.378,55.916 L128.44,58 L128.74,58 L128.671,55.888 L128.094,55.888 L128.093,55.887 Z" id="Shape"></path>
            </g>
        </g>
    </g>
</svg>