<?xml version="1.0" encoding="utf-8"?>
<svg width="693px" height="693px" viewbox="0 0 693 693" version="1.1" xmlns:xlink="http://www.w3.org/1999/xlink" xmlns="http://www.w3.org/2000/svg">
  <g id="Radial" transform="translate(0.5 0.5)" opacity="0.15565564">
    <path d="M26 52C40.3594 52 52 40.3594 52 26C52 11.6406 40.3594 0 26 0C11.6406 0 0 11.6406 0 26C0 40.3594 11.6406 52 26 52Z" transform="translate(320 320)" id="Oval" fill="none" fill-rule="evenodd" stroke="#FFFFFF" stroke-width="1" />
    <path d="M38 76C58.9868 76 76 58.9868 76 38C76 17.0132 58.9868 0 38 0C17.0132 0 0 17.0132 0 38C0 58.9868 17.0132 76 38 76Z" transform="translate(308 308)" id="Oval" fill="none" fill-rule="evenodd" stroke="#FFFFFF" stroke-width="1" />
    <path d="M51.5 103C79.9427 103 103 79.9427 103 51.5C103 23.0573 79.9427 0 51.5 0C23.0573 0 0 23.0573 0 51.5C0 79.9427 23.0573 103 51.5 103Z" transform="translate(295 295)" id="Oval" fill="none" fill-rule="evenodd" stroke="#FFFFFF" stroke-width="1" />
    <path d="M64 128C99.3462 128 128 99.3462 128 64C128 28.6538 99.3462 0 64 0C28.6538 0 0 28.6538 0 64C0 99.3462 28.6538 128 64 128Z" transform="translate(282 282)" id="Oval" fill="none" fill-rule="evenodd" stroke="#FFFFFF" stroke-width="1" />
    <path d="M77 154C119.526 154 154 119.526 154 77C154 34.4741 119.526 0 77 0C34.4741 0 0 34.4741 0 77C0 119.526 34.4741 154 77 154Z" transform="translate(269 269)" id="Oval" fill="none" fill-rule="evenodd" stroke="#FFFFFF" stroke-width="1" />
    <path d="M89.5 179C138.929 179 179 138.929 179 89.5C179 40.0705 138.929 0 89.5 0C40.0705 0 0 40.0705 0 89.5C0 138.929 40.0705 179 89.5 179Z" transform="translate(257 257)" id="Oval" fill="none" fill-rule="evenodd" stroke="#FFFFFF" stroke-width="1" />
    <path d="M103 206C159.885 206 206 159.885 206 103C206 46.1147 159.885 0 103 0C46.1147 0 0 46.1147 0 103C0 159.885 46.1147 206 103 206Z" transform="translate(243 243)" id="Oval" fill="none" fill-rule="evenodd" stroke="#FFFFFF" stroke-width="1" />
    <path d="M115.5 231C179.289 231 231 179.289 231 115.5C231 51.7111 179.289 0 115.5 0C51.7111 0 0 51.7111 0 115.5C0 179.289 51.7111 231 115.5 231Z" transform="translate(230 231)" id="Oval" fill="none" fill-rule="evenodd" stroke="#FFFFFF" stroke-width="1" />
    <path d="M128.5 257C199.469 257 257 199.469 257 128.5C257 57.5314 199.469 0 128.5 0C57.5314 0 0 57.5314 0 128.5C0 199.469 57.5314 257 128.5 257Z" transform="translate(218 218)" id="Oval" fill="none" fill-rule="evenodd" stroke="#FFFFFF" stroke-width="1" />
    <path d="M141 282C218.872 282 282 218.872 282 141C282 63.1278 218.872 0 141 0C63.1278 0 0 63.1278 0 141C0 218.872 63.1278 282 141 282Z" transform="translate(205 205)" id="Oval" fill="none" fill-rule="evenodd" stroke="#FFFFFF" stroke-width="1" />
    <path d="M154.5 309C239.828 309 309 239.828 309 154.5C309 69.172 239.828 0 154.5 0C69.172 0 0 69.172 0 154.5C0 239.828 69.172 309 154.5 309Z" transform="translate(191 192)" id="Oval" fill="none" fill-rule="evenodd" stroke="#FFFFFF" stroke-width="1" />
    <path d="M166.5 333C258.455 333 333 258.455 333 166.5C333 74.5446 258.455 0 166.5 0C74.5446 0 0 74.5446 0 166.5C0 258.455 74.5446 333 166.5 333Z" transform="translate(180 179)" id="Oval" fill="none" fill-rule="evenodd" stroke="#FFFFFF" stroke-width="1" />
    <path d="M179.5 359C278.635 359 359 278.635 359 179.5C359 80.3649 278.635 0 179.5 0C80.3649 0 0 80.3649 0 179.5C0 278.635 80.3649 359 179.5 359Z" transform="translate(167 166)" id="Oval" fill="none" fill-rule="evenodd" stroke="#FFFFFF" stroke-width="1" />
    <path d="M191.5 383C297.263 383 383 297.263 383 191.5C383 85.7375 297.263 0 191.5 0C85.7375 0 0 85.7375 0 191.5C0 297.263 85.7375 383 191.5 383Z" transform="translate(154 155)" id="Oval" fill="none" fill-rule="evenodd" stroke="#FFFFFF" stroke-width="1" />
    <path d="M205 410C318.218 410 410 318.218 410 205C410 91.7816 318.218 0 205 0C91.7816 0 0 91.7816 0 205C0 318.218 91.7816 410 205 410Z" transform="translate(141 141)" id="Oval" fill="none" fill-rule="evenodd" stroke="#FFFFFF" stroke-width="1" />
    <path d="M217.5 435C337.622 435 435 337.622 435 217.5C435 97.3781 337.622 0 217.5 0C97.3781 0 0 97.3781 0 217.5C0 337.622 97.3781 435 217.5 435Z" transform="translate(129 129)" id="Oval" fill="none" fill-rule="evenodd" stroke="#FFFFFF" stroke-width="1" />
    <path d="M230.5 461C357.802 461 461 357.802 461 230.5C461 103.198 357.802 0 230.5 0C103.198 0 0 103.198 0 230.5C0 357.802 103.198 461 230.5 461Z" transform="translate(115 116)" id="Oval" fill="none" fill-rule="evenodd" stroke="#FFFFFF" stroke-width="1" />
    <path d="M243 486C377.205 486 486 377.205 486 243C486 108.795 377.205 0 243 0C108.795 0 0 108.795 0 243C0 377.205 108.795 486 243 486Z" transform="translate(103 103)" id="Oval" fill="none" fill-rule="evenodd" stroke="#FFFFFF" stroke-width="1" />
    <path d="M256.5 513C398.161 513 513 398.161 513 256.5C513 114.839 398.161 0 256.5 0C114.839 0 0 114.839 0 256.5C0 398.161 114.839 513 256.5 513Z" transform="translate(90 90)" id="Oval" fill="none" fill-rule="evenodd" stroke="#FFFFFF" stroke-width="1" />
    <path d="M256.5 513C398.161 513 513 398.161 513 256.5C513 114.839 398.161 0 256.5 0C114.839 0 0 114.839 0 256.5C0 398.161 114.839 513 256.5 513Z" transform="translate(90 90)" id="Oval" fill="none" fill-rule="evenodd" stroke="#FFFFFF" stroke-width="1" />
    <path d="M269 538C417.565 538 538 417.565 538 269C538 120.435 417.565 0 269 0C120.435 0 0 120.435 0 269C0 417.565 120.435 538 269 538Z" transform="translate(77 77)" id="Oval" fill="none" fill-rule="evenodd" stroke="#FFFFFF" stroke-width="1" />
    <path d="M282 564C437.744 564 564 437.744 564 282C564 126.256 437.744 0 282 0C126.256 0 0 126.256 0 282C0 437.744 126.256 564 282 564Z" transform="translate(64 64)" id="Oval" fill="none" fill-rule="evenodd" stroke="#FFFFFF" stroke-width="1" />
    <path d="M294.5 589C457.148 589 589 457.148 589 294.5C589 131.852 457.148 0 294.5 0C131.852 0 0 131.852 0 294.5C0 457.148 131.852 589 294.5 589Z" transform="translate(52 51)" id="Oval" fill="none" fill-rule="evenodd" stroke="#FFFFFF" stroke-width="1" />
    <path d="M308 616C478.104 616 616 478.104 616 308C616 137.896 478.104 0 308 0C137.896 0 0 137.896 0 308C0 478.104 137.896 616 308 616Z" transform="translate(38 38)" id="Oval" fill="none" fill-rule="evenodd" stroke="#FFFFFF" stroke-width="1" />
    <path d="M320 640C496.731 640 640 496.731 640 320C640 143.269 496.731 0 320 0C143.269 0 0 143.269 0 320C0 496.731 143.269 640 320 640Z" transform="translate(26 26)" id="Oval" fill="none" fill-rule="evenodd" stroke="#FFFFFF" stroke-width="1" />
    <path d="M333.5 667C517.687 667 667 517.687 667 333.5C667 149.313 517.687 0 333.5 0C149.313 0 0 149.313 0 333.5C0 517.687 149.313 667 333.5 667Z" transform="translate(13 12)" id="Oval" fill="none" fill-rule="evenodd" stroke="#FFFFFF" stroke-width="1" />
    <path d="M346 692C537.091 692 692 537.091 692 346C692 154.909 537.091 0 346 0C154.909 0 0 154.909 0 346C0 537.091 154.909 692 346 692Z" id="Oval" fill="none" fill-rule="evenodd" stroke="#FFFFFF" stroke-width="1" />
  </g>
</svg>